<?xml version="1.0" encoding="UTF-8"?>
<svg width="1024px" height="1024px" viewBox="0 0 1024 1024" version="1.1" xmlns="http://www.w3.org/2000/svg" xmlns:xlink="http://www.w3.org/1999/xlink">
    <title>01-mud-alt-mud</title>
    <defs>
        <linearGradient x1="50%" y1="0%" x2="50%" y2="98.0168269%" id="linearGradient-1">
            <stop stop-color="#825008" stop-opacity="0.5" offset="0%"></stop>
            <stop stop-color="#703A00" stop-opacity="0.7" offset="100%"></stop>
        </linearGradient>
        <linearGradient x1="4.58852037%" y1="36.4892266%" x2="95.0755%" y2="60.5404574%" id="linearGradient-2">
            <stop stop-color="#FFFFFF" stop-opacity="0" offset="0%"></stop>
            <stop stop-color="#B2946D" stop-opacity="0.131610577" offset="100%"></stop>
        </linearGradient>
        <path d="M222.085877,704.750373 C257.048962,703.634508 322.785374,698.380156 419.295112,688.987317 C515.804851,679.594477 650.311202,676.519702 822.814167,679.762991 L805.930334,958.134803 C805.296263,968.589024 796.307427,976.54983 785.853206,975.915759 C779.228399,975.513951 773.295724,971.677995 770.210682,965.801599 L757.452216,941.495926 C748.673339,924.770856 727.998304,918.329194 711.273234,927.108071 C710.751668,927.381837 710.237262,927.669032 709.73053,927.969369 C700.987742,933.151922 691.298531,937.82462 680.662745,941.987204 C644.323932,956.209318 631.647087,970.519534 594.508162,962 C572.77503,957.014499 543.333327,937.913377 506.183053,904.696637 L506.185921,904.693429 C496.257223,895.816442 482.07838,893.510437 469.848345,898.783595 L435.768268,913.482327 C430.533881,915.739802 424.493744,915.041866 419.912119,911.650154 L372.773799,876.753936 C366.40369,872.03884 358.593809,869.682332 350.678851,870.087136 C336.051839,870.836511 317.320117,877.474144 294.483689,890.000174 C279.088777,898.444451 265.374704,907.703655 253.34147,917.777786 L253.341726,917.778091 C244.870421,924.86986 232.254058,923.751525 225.162289,915.28022 C222.112766,911.637485 220.45921,907.028344 220.497596,902.277803 L222.085877,704.750373 L222.085877,704.750373 Z" id="path-3"></path>
    </defs>
    <g id="01-mud-alt-mud" stroke="none" fill="none">
        <path d="M231.5,968 C237.851275,968 243,963.780278 243,958.574986 C243,953.369695 237.851275,934 231.5,934 C225.148725,934 220,953.369695 220,958.574986 C220,963.780278 225.148725,968 231.5,968 Z" id="Oval-2" fill="#332618" fill-rule="evenodd"></path>
        <g id="o" fill-rule="evenodd">
            <use fill="#332617" xlink:href="#path-3"></use>
            <use fill="url(#linearGradient-2)" xlink:href="#path-3"></use>
        </g>
        <path d="M237.857422,712.773263 C341.24246,704.926875 409.121371,699.425806 441.494153,696.270056 C490.053327,691.536432 536.393106,691.671005 577.195312,690.394569 C626.655689,688.847276 704.014413,688.645666 809.271484,689.78974" id="Path" stroke="#FFFFFF" stroke-width="6" opacity="0.19" stroke-linecap="round"></path>
    </g>
</svg>