<?xml version="1.0" encoding="UTF-8"?>
<svg width="1024px" height="1024px" viewBox="0 0 1024 1024" version="1.1" xmlns="http://www.w3.org/2000/svg" xmlns:xlink="http://www.w3.org/1999/xlink">
    <title>mud-alt-text</title>
    <defs>
        <linearGradient x1="50%" y1="0%" x2="50%" y2="98.0168269%" id="linearGradient-1">
            <stop stop-color="#825008" stop-opacity="0.5" offset="0%"></stop>
            <stop stop-color="#703A00" stop-opacity="0.7" offset="100%"></stop>
        </linearGradient>
    </defs>
    <g id="mud-alt-text" stroke="none" fill="none" fill-rule="evenodd" stroke-width="1">
        <g id="Group" transform="translate(117, 73)">
            <g opacity="0.2" transform="translate(105.1858, 315.028)" id="Path" stroke="#733B00" stroke-dasharray="36.00175985541755,18.00087992770878" stroke-width="9.00043996">
                <line x1="0.900043996" y1="201.427034" x2="578.72829" y2="201.427034"></line>
                <line x1="0.900043996" y1="1.61726656" x2="578.72829" y2="1.61726656"></line>
            </g>
            <g id="#-MARK---Up-or---Dow" transform="translate(181.8293, 188.3239)" fill-rule="nonzero">
                <path d="M6.14618621,57.0267876 C5.62776087,60.2237439 7.1830369,62.1246368 10.4663974,62.1246368 L12.4536945,62.1246368 C15.3914381,62.1246368 17.1195226,60.655765 17.637948,57.8044256 L19.5388409,46.5718765 L28.870497,46.5718765 L27.0560083,57.0267876 C26.537583,60.2237439 28.092859,62.1246368 31.3762195,62.1246368 L33.3635167,62.1246368 C36.3012603,62.1246368 38.0293447,60.655765 38.5477701,57.8044256 L40.448663,46.5718765 L44.9416826,46.5718765 C47.8794262,46.5718765 49.6075107,45.1030047 50.0395318,42.2516654 L50.2123403,41.3012189 C50.7307656,38.1042626 49.1754896,36.2033697 45.8921291,36.2033697 L42.1767475,36.2033697 L43.6456193,27.9949685 L48.3114474,27.9949685 C51.249191,27.9949685 52.9772754,26.5260967 53.4092966,23.6747573 L53.582105,22.7243108 C54.1005303,19.5273545 52.5452543,17.6264616 49.2618938,17.6264616 L45.3737038,17.6264616 L47.5338093,5.44346609 C48.0522347,2.24650981 46.4969587,0.345616895 43.2135982,0.345616895 L41.226301,0.345616895 C38.2885574,0.345616895 36.5604729,1.8144887 36.0420476,4.66582808 L33.7955378,17.6264616 L24.4638816,17.6264616 L26.6239872,5.44346609 C27.1424126,2.24650981 25.5871365,0.345616895 22.303776,0.345616895 L20.3164789,0.345616895 C17.3787353,0.345616895 15.6506508,1.8144887 15.1322255,4.66582808 L12.8857157,17.6264616 L8.6519087,17.6264616 C5.80056932,17.6264616 4.07248485,19.0953334 3.64046373,21.9466728 L3.46765528,22.8971193 C2.94922994,26.0940755 4.50450596,27.9949685 7.78786646,27.9949685 L11.1576312,27.9949685 L9.68875938,36.2033697 L5.3685482,36.2033697 C2.4308046,36.2033697 0.702720123,37.6722415 0.270699005,40.5235809 L0.0978905572,41.4740274 C-0.420534785,44.6709836 1.13474124,46.5718765 4.41810174,46.5718765 L7.96067491,46.5718765 L6.14618621,57.0267876 Z M21.2669254,36.2033697 L22.7357972,27.9949685 L32.0674533,27.9949685 L30.5985815,36.2033697 L21.2669254,36.2033697 Z" id="Shape" fill="#E5B053"></path>
                <path d="M81.2314566,56.2491496 C80.8858397,59.9645312 82.8731368,62.1246368 86.5021142,62.1246368 L93.3280479,62.1246368 C96.870621,62.1246368 98.8579182,60.3101481 99.1171309,56.6811707 L100.153982,39.3139218 C100.499598,34.1296683 100.067577,25.3164375 100.067577,25.3164375 L100.240386,25.3164375 C100.240386,25.3164375 102.659704,34.9937106 103.782959,39.3139218 L106.029469,48.1271526 C107.152724,51.2377046 109.140021,52.6201722 112.423381,52.6201722 L118.73089,52.6201722 C122.01425,52.6201722 124.087951,51.2377046 125.211206,48.1271526 L127.457716,39.3139218 C128.494567,35.0801148 131.000289,25.2300333 131.000289,25.2300333 L131.173098,25.2300333 C131.173098,25.2300333 130.827481,34.1296683 131.086694,39.3139218 L132.03714,56.6811707 C132.209949,60.3101481 134.28365,62.1246368 137.912627,62.1246368 L144.565753,62.1246368 C148.281134,62.1246368 150.268431,59.9645312 149.922814,56.2491496 L145.775412,5.44346609 C145.516199,1.8144887 143.528902,0 139.899924,0 L129.963439,0 C126.680078,0 124.519973,1.4688718 123.65593,4.66582808 L118.817294,22.810715 C117.607635,27.1309262 115.706742,35.5121359 115.706742,35.5121359 L115.533933,35.5121359 C115.533933,35.5121359 113.546636,27.2173305 112.336977,22.810715 L107.498341,4.66582808 C106.634298,1.4688718 104.474193,0 101.190832,0 L91.2543465,0 C87.7117733,0 85.7244762,1.8144887 85.3788593,5.44346609 L81.2314566,56.2491496 Z" id="Path" fill="#735535"></path>
                <path d="M154.070217,55.64432 C152.68775,59.5325101 154.588642,62.1246368 158.649641,62.1246368 L165.648383,62.1246368 C168.931744,62.1246368 171.005445,60.5693608 171.869487,57.3724045 L173.165551,51.3241088 L190.705608,51.3241088 L192.001671,57.3724045 C193.038522,60.5693608 195.025819,62.1246368 198.395584,62.1246368 L205.394326,62.1246368 C209.455324,62.1246368 211.356217,59.5325101 209.97375,55.64432 L193.124926,4.57942385 C192.088076,1.4688718 190.014374,0 186.731014,0 L177.312953,0 C173.943189,0 171.955891,1.4688718 170.919041,4.57942385 L154.070217,55.64432 Z M177.312953,36.8946035 L179.386655,28.2541811 C180.50991,24.0203742 181.892377,16.7624194 181.892377,16.7624194 L182.065186,16.7624194 C182.065186,16.7624194 183.534057,24.0203742 184.657312,28.2541811 L186.558205,36.8946035 L177.312953,36.8946035 Z" id="Shape" fill="#735535"></path>
                <path d="M215.762833,56.5083623 C215.762833,60.1373397 217.75013,62.1246368 221.465512,62.1246368 L228.377849,62.1246368 C232.093231,62.1246368 233.994124,60.1373397 233.994124,56.5083623 L233.994124,42.9428992 L238.314335,42.9428992 L246.17712,58.1500425 C247.732396,61.0877861 250.151714,62.1246368 252.830245,62.1246368 L260.865838,62.1246368 C265.01324,62.1246368 267.173346,59.6189143 264.754028,55.2987031 L256.977647,41.4740274 C255.59518,39.0547091 254.212712,37.4994331 254.212712,37.4994331 L254.212712,37.3266246 C260.261008,33.611243 262.853135,26.266884 262.853135,19.9593757 C262.853135,10.800528 257.668881,3.62897739 250.670139,1.29606335 C247.905204,0.345616895 244.017014,0 238.314335,0 L221.465512,0 C217.75013,0 215.762833,1.90089292 215.762833,5.61627454 L215.762833,56.5083623 Z M233.994124,27.3901389 L233.994124,15.5527603 L236.759059,15.5527603 C238.746356,15.5527603 240.215228,15.6391645 241.597696,16.243994 C244.103418,17.2808447 244.362631,19.1817377 244.362631,20.8234179 C244.362631,25.489246 242.202525,27.3901389 237.882314,27.3901389 L233.994124,27.3901389 Z" id="Shape" fill="#735535"></path>
                <path d="M271.320749,56.5083623 C271.320749,60.1373397 273.308046,62.1246368 277.023427,62.1246368 L283.935765,62.1246368 C287.651147,62.1246368 289.55204,60.1373397 289.55204,56.5083623 L289.55204,38.4498795 L294.390676,38.4498795 L303.808737,58.0636383 C305.364013,60.9149777 307.437714,62.1246368 310.548266,62.1246368 L318.670263,62.1246368 C323.163283,62.1246368 324.804963,59.2732974 322.644857,55.2987031 L309.252203,29.9822656 L309.252203,29.8094572 L321.694411,6.73952944 C323.768112,2.85133938 322.126432,0 317.633412,0 L310.548266,0 C307.437714,0 305.364013,1.20965913 303.808737,4.06099851 L294.390676,22.9835235 L289.55204,22.9835235 L289.55204,5.61627454 C289.55204,1.90089292 287.651147,0 283.935765,0 L277.023427,0 C273.308046,0 271.320749,1.90089292 271.320749,5.61627454 L271.320749,56.5083623 Z" id="Path" fill="#735535"></path>
                <path d="M27.7472421,243.616709 L45.3737038,243.616709 C48.4842558,243.616709 50.1259361,241.975028 50.1259361,238.864476 L50.1259361,235.408307 C50.1259361,232.297755 48.4842558,230.656075 45.3737038,230.656075 L27.7472421,230.656075 C24.6366901,230.656075 22.9950098,232.297755 22.9950098,235.408307 L22.9950098,238.864476 C22.9950098,241.975028 24.6366901,243.616709 27.7472421,243.616709 Z" id="Path" fill="#E5B053"></path>
                <path d="M82.3547115,239.901327 C82.3547115,253.639599 92.204793,262.971255 107.066319,262.971255 C121.841442,262.971255 131.691523,253.639599 131.691523,239.901327 L131.691523,204.216383 C131.691523,201.883469 130.481864,200.587405 128.14895,200.587405 L124.174356,200.587405 C121.841442,200.587405 120.631783,201.883469 120.631783,204.216383 L120.631783,239.814923 C120.631783,248.109728 115.188316,252.775556 106.979915,252.775556 C98.771514,252.775556 93.4144521,248.109728 93.4144521,239.814923 L93.4144521,204.216383 C93.4144521,201.883469 92.204793,200.587405 89.7854747,200.587405 L85.8972846,200.587405 C83.5643706,200.587405 82.3547115,201.883469 82.3547115,204.216383 L82.3547115,239.901327 Z" id="Path" fill="#745534"></path>
                <path d="M142.66486,275.586271 C142.66486,278.00559 143.960923,279.215249 146.293837,279.215249 L150.009219,279.215249 C152.428537,279.215249 153.638196,278.00559 153.638196,275.586271 L153.638196,260.033511 C153.638196,257.787001 153.378983,256.231725 153.378983,256.231725 L153.551792,256.231725 C153.551792,256.231725 157.094365,262.971255 166.253213,262.971255 C177.831379,262.971255 186.471801,253.898811 186.471801,239.901327 C186.471801,226.24946 178.781825,216.831399 166.858042,216.831399 C156.57594,216.831399 152.68775,224.607779 152.68775,224.607779 L152.514941,224.607779 C152.514941,224.607779 152.601345,223.830141 152.601345,222.879695 L152.601345,220.892398 C152.601345,219.164313 151.391686,217.86825 149.058772,217.86825 L146.293837,217.86825 C143.960923,217.86825 142.66486,219.164313 142.66486,221.497227 L142.66486,275.586271 Z M153.292579,240.16054 C153.292579,230.396862 158.736045,226.24946 164.438724,226.24946 C170.832636,226.24946 175.325656,231.692926 175.325656,240.074135 C175.325656,248.800962 170.314211,253.726003 164.265915,253.726003 C157.094365,253.726003 153.292579,246.986473 153.292579,240.16054 Z" id="Shape" fill="#745534"></path>
                <path d="M234.512549,243.4439 C234.512549,255.194875 243.32578,262.971255 255.422371,262.971255 C269.679068,262.971255 283.41734,251.738706 283.41734,236.27235 C283.41734,224.780588 274.690513,216.831399 262.507518,216.831399 C247.991608,216.831399 234.512549,228.150353 234.512549,243.4439 Z M245.658694,242.925475 C245.658694,233.248202 253.780691,226.163055 261.643476,226.163055 C267.86458,226.163055 272.271195,230.396862 272.271195,236.963583 C272.271195,246.640856 264.149198,253.639599 256.286414,253.639599 C250.06531,253.639599 245.658694,249.492196 245.658694,242.925475 Z" id="Shape" fill="#E5B054"></path>
                <path d="M291.280124,261.934404 L302.253461,261.934404 L305.277608,245.863218 C307.35131,235.06269 315.041286,228.063948 321.694411,228.063948 C323.076879,228.063948 324.027325,228.236757 324.286538,228.236757 L326.446643,217.436229 C326.101026,217.436229 325.15058,217.26342 323.854517,217.26342 C317.028583,217.26342 311.2395,222.706886 308.215352,228.668778 L308.042544,228.668778 C308.733777,226.681481 309.511415,223.052503 309.511415,221.75644 C309.511415,219.164313 307.869735,217.86825 304.49997,217.86825 L293.008209,217.86825 L291.366528,226.076651 L296.291569,226.076651 C297.760441,226.076651 298.106058,227.027098 297.846845,227.977544 L291.280124,261.934404 Z" id="Path" fill="#E5B054"></path>
                <path d="M27.7472421,443.426476 L45.3737038,443.426476 C48.4842558,443.426476 50.1259361,441.784796 50.1259361,438.674243 L50.1259361,435.218075 C50.1259361,432.107522 48.4842558,430.465842 45.3737038,430.465842 L27.7472421,430.465842 C24.6366901,430.465842 22.9950098,432.107522 22.9950098,435.218075 L22.9950098,438.674243 C22.9950098,441.784796 24.6366901,443.426476 27.7472421,443.426476 Z" id="Path" fill="#E5B052"></path>
                <path d="M83.0459453,458.115194 C83.0459453,460.534512 84.2556044,461.744171 86.5885184,461.744171 L103.955767,461.744171 C122.878292,461.744171 135.234096,450.338814 135.234096,430.984268 C135.234096,411.629721 122.878292,400.397172 103.955767,400.397172 L86.5885184,400.397172 C84.2556044,400.397172 83.0459453,401.693236 83.0459453,404.02615 L83.0459453,458.115194 Z M94.1056859,452.153302 L94.1056859,409.988041 L103.350938,409.988041 C115.620338,409.988041 123.742335,417.3324 123.742335,430.984268 C123.742335,444.808943 115.793146,452.153302 103.350938,452.153302 L94.1056859,452.153302 Z" id="Shape" fill="#725635"></path>
                <path d="M141.541605,439.711094 C141.541605,453.276557 152.342133,462.781022 165.734787,462.781022 C179.127442,462.781022 190.014374,453.276557 190.014374,439.711094 C190.014374,426.232035 179.127442,416.641166 165.734787,416.641166 C152.342133,416.641166 141.541605,426.232035 141.541605,439.711094 Z M152.68775,439.711094 C152.68775,431.589097 158.563237,425.972823 165.734787,425.972823 C172.906338,425.972823 178.868229,431.589097 178.868229,439.711094 C178.868229,447.919495 172.906338,453.449366 165.734787,453.449366 C158.563237,453.449366 152.68775,447.919495 152.68775,439.711094 Z" id="Shape" fill="#725635"></path>
                <path d="M205.653539,458.720023 C206.258368,460.793725 207.554432,461.744171 209.628133,461.744171 L215.590024,461.744171 C217.75013,461.744171 219.046193,460.707321 219.564619,458.633619 L226.217744,436.600542 C226.908978,434.267628 227.340999,431.84831 227.340999,431.84831 L227.513807,431.84831 C227.513807,431.84831 227.859424,434.267628 228.550658,436.600542 L235.203783,458.633619 C235.722208,460.707321 237.104676,461.744171 239.264782,461.744171 L245.053865,461.744171 C247.127566,461.744171 248.510034,460.793725 249.114863,458.720023 L260.433816,421.739016 C261.12505,419.319697 260.001795,417.678017 257.409669,417.678017 L253.435074,417.678017 C251.274969,417.678017 249.978905,418.714868 249.46048,420.874973 L242.461738,446.623432 C241.856908,448.956346 241.511291,451.28926 241.511291,451.28926 L241.338483,451.28926 C241.338483,451.28926 241.07927,448.956346 240.388037,446.623432 L233.043678,420.874973 C232.525252,418.801272 231.229189,417.764421 229.069083,417.764421 L225.785723,417.764421 C223.625617,417.764421 222.24315,418.801272 221.811128,420.874973 L214.380365,446.623432 C213.775536,448.956346 213.429919,451.28926 213.429919,451.28926 L213.25711,451.28926 C213.25711,451.28926 212.911493,448.956346 212.393068,446.623432 L205.307922,420.874973 C204.875901,418.714868 203.579837,417.678017 201.419732,417.678017 L197.272329,417.678017 C194.766606,417.678017 193.556947,419.319697 194.248181,421.739016 L205.653539,458.720023 Z" id="Path" fill="#725635"></path>
                <path d="M267.778175,458.115194 C267.778175,460.534512 268.987835,461.744171 271.320749,461.744171 L275.122534,461.744171 C277.455448,461.744171 278.665108,460.534512 278.665108,458.115194 L278.665108,441.093562 C278.665108,433.144373 283.590148,426.664056 291.366528,426.664056 C296.896399,426.664056 298.278866,430.293034 298.278866,435.650096 L298.278866,458.115194 C298.278866,460.534512 299.57493,461.744171 301.907844,461.744171 L305.623225,461.744171 C308.042544,461.744171 309.252203,460.534512 309.252203,458.115194 L309.252203,433.403586 C309.252203,421.739016 303.635928,416.641166 293.872251,416.641166 C284.972616,416.641166 280.133979,422.257441 278.233086,425.972823 L278.060278,425.972823 C278.060278,425.972823 278.233086,424.935972 278.233086,423.985525 L278.233086,421.306995 C278.233086,418.97408 277.023427,417.678017 274.690513,417.678017 L271.320749,417.678017 C268.987835,417.678017 267.778175,418.97408 267.778175,421.306995 L267.778175,458.115194 Z" id="Path" fill="#725635"></path>
            </g>
        </g>
    </g>
</svg>